<?xml version="1.0" encoding="utf-8"?>
<!-- Generator: Adobe Illustrator 28.0.0, SVG Export Plug-In . SVG Version: 6.00 Build 0)  -->
<svg version="1.1" id="Camada_1" xmlns="http://www.w3.org/2000/svg" xmlns:xlink="http://www.w3.org/1999/xlink" x="0px" y="0px"
	 viewBox="0 0 652.64 203.45" style="enable-background:new 0 0 652.64 203.45;" xml:space="preserve">
<style type="text/css">
	.st0{fill:#FFFFFF;stroke:#EE761B;stroke-width:15;stroke-miterlimit:10;}
	.st1{fill:#1C3661;}
	.st2{fill:#EE761B;}
	.st3{fill:none;stroke:#000000;stroke-miterlimit:10;}
	.st4{fill:#E30613;}
	.st5{fill:none;stroke:#1C3661;stroke-width:16;stroke-miterlimit:10;}
	.st6{fill:#FFFFFF;stroke:#EE761B;stroke-width:13;stroke-miterlimit:10;}
	.st7{fill:#010202;}
	.st8{fill:#FFFFFF;}
	.st9{fill:#FFFFFF;stroke:#EE761B;stroke-width:9.5;stroke-miterlimit:10;}
	.st10{fill:#FFFFFF;stroke:#EE761B;stroke-width:8.5;stroke-miterlimit:10;}
</style>
<g>
	<g>
		<path class="st2" d="M546.86,198.59c-22.49,0-40.8-18.3-40.8-40.8v-39.21c0-22.49,18.3-40.8,40.8-40.8c22.5,0,40.8,18.3,40.8,40.8
			v39.21C587.66,180.29,569.36,198.59,546.86,198.59z M546.86,94.12c-13.49,0-24.46,10.97-24.46,24.46v39.21
			c0,13.49,10.97,24.46,24.46,24.46c13.49,0,24.46-10.97,24.46-24.46v-39.21C571.33,105.1,560.35,94.12,546.86,94.12z"/>
	</g>
	<g>
		<path class="st1" d="M0,199.82v-94.99C0,61.8,34.89,26.91,77.92,26.91h531.15c4.01,0,7.27,3.25,7.27,7.27v0
			c0,4.01-3.25,7.27-7.27,7.27H80.03c-34.82,0-63.04,28.23-63.04,63.04v4.29h39.83c3.92,0,7.09,3.17,7.09,7.09v0
			c0,3.92-3.17,7.09-7.09,7.09H16.98v62.33h54.19c4.01,0,7.27,3.25,7.27,7.27v0c0,4.01-3.25,7.27-7.27,7.27H0z"/>
	</g>
	<g>
		<path class="st1" d="M621.75,196.19V66.81c0-4.01,3.25-7.27,7.27-7.27h0c4.01,0,7.27,3.25,7.27,7.27v129.38
			c0,4.01-3.25,7.27-7.27,7.27h0C625.01,203.45,621.75,200.2,621.75,196.19z"/>
	</g>
	<g>
		<path class="st1" d="M161.53,65.59L161.53,65.59c4.97-0.86,9.52,2.98,9.52,8.02v117.2c0,3.82-2.64,7.13-6.38,7.95
			c-2.4,0.53-5.05,1.05-7.98,1.58c-5.84,1.05-12.55,1.58-20.13,1.58c-7,0-13.31-1.11-18.91-3.33c-5.6-2.22-10.39-5.37-14.36-9.45
			c-3.97-4.08-7.03-9.07-9.19-14.97c-2.16-5.89-3.24-12.52-3.24-19.87c0-7,0.9-13.42,2.71-19.26c1.81-5.84,4.46-10.86,7.97-15.06
			c3.5-4.2,7.79-7.47,12.87-9.8c5.08-2.33,10.88-3.5,17.42-3.5c5.25,0,9.89,0.7,13.92,2.1c4.03,1.4,7.03,2.74,9.02,4.03V73.62
			C154.77,69.65,157.63,66.27,161.53,65.59z M154.77,128.04c-1.98-1.63-4.85-3.21-8.58-4.73c-3.73-1.52-7.82-2.28-12.25-2.28
			c-4.67,0-8.67,0.85-11.99,2.54c-3.33,1.69-6.04,4.03-8.14,7c-2.1,2.98-3.62,6.51-4.55,10.59c-0.94,4.09-1.4,8.46-1.4,13.13
			c0,10.62,2.63,18.82,7.88,24.6c5.25,5.78,12.26,8.67,21.01,8.67c4.43,0,8.14-0.2,11.12-0.61c2.98-0.41,5.28-0.85,6.91-1.31V128.04
			z"/>
	</g>
	<g>
		<path class="st1" d="M271.55,190.66c0,3.86-2.71,7.21-6.5,7.97c-2.47,0.5-5.23,1.01-8.3,1.53c-6.13,1.05-13.22,1.58-21.27,1.58
			c-7,0-12.9-1.02-17.68-3.06c-4.79-2.04-8.64-4.93-11.55-8.67c-2.92-3.73-5.02-8.14-6.3-13.22c-1.29-5.08-1.93-10.71-1.93-16.9
			v-42.98c0-4.5,3.64-8.14,8.14-8.14h0c4.5,0,8.14,3.64,8.14,8.14v39.48c0,11.09,1.75,19.03,5.25,23.81
			c3.5,4.79,9.39,7.18,17.68,7.18c1.75,0,3.56-0.06,5.43-0.17c1.87-0.12,3.62-0.26,5.25-0.44c1.63-0.17,3.12-0.35,4.46-0.52
			c1.34-0.18,2.3-0.38,2.89-0.61v-68.72c0-4.5,3.65-8.14,8.14-8.14h0c4.5,0,8.14,3.64,8.14,8.14V190.66z"/>
	</g>
	<g>
		<g>
			<path class="st2" d="M401.45,150.62c0-11.79,1.63-22.21,4.9-31.25c3.27-9.04,7.91-16.66,13.92-22.85
				c6.01-6.19,13.31-10.88,21.88-14.09c6.71-2.51,14.08-4.07,22.11-4.69c3.78-0.29,7.12,2.47,7.46,6.25v0
				c0.34,3.79-2.46,7.13-6.25,7.46c-4.24,0.37-8.22,1.01-11.93,1.93c-5.66,1.4-10.71,3.62-15.14,6.65
				c-4.44,3.04-8.17,6.98-11.2,11.82c-3.04,4.84-5.32,10.83-6.83,17.95c3.04-1.4,6.45-2.57,10.24-3.5c3.79-0.93,7.73-1.4,11.82-1.4
				c6.88,0,12.72,1.05,17.51,3.15c4.78,2.1,8.69,4.87,11.73,8.32c3.03,3.44,5.22,7.41,6.56,11.91c1.34,4.49,2.01,9.19,2.01,14.09
				c0,4.44-0.76,8.99-2.28,13.66c-1.52,4.67-3.82,8.93-6.92,12.78c-3.09,3.85-7.03,7-11.82,9.45c-4.79,2.45-10.45,3.68-16.98,3.68
				c-13.3,0-23.43-4.55-30.38-13.66C404.93,179.16,401.45,166.61,401.45,150.62z M440.67,138.19c-4.09,0-7.88,0.38-11.38,1.14
				c-3.5,0.76-7,1.9-10.5,3.41c-0.12,1.29-0.2,2.6-0.26,3.94c-0.06,1.34-0.09,2.66-0.09,3.94c0,5.14,0.35,9.98,1.05,14.53
				c0.7,4.55,1.95,8.55,3.76,11.99c1.81,3.44,4.23,6.19,7.27,8.23c3.04,2.04,6.89,3.06,11.55,3.06c3.85,0,7.12-0.82,9.81-2.45
				c2.68-1.63,4.9-3.73,6.65-6.3c1.75-2.57,3.01-5.34,3.76-8.32c0.76-2.98,1.14-5.87,1.14-8.67c0-7.94-1.9-14.01-5.69-18.21
				C453.95,140.29,448.26,138.19,440.67,138.19z"/>
		</g>
	</g>
	<g>
		<g>
			<g>
				<path class="st2" d="M307.59,184.1c-4.33,0-7.86,3.53-7.86,7.86c0,4.33,3.53,7.86,7.86,7.86h31.56
					c18.95,0,34.72-14.99,35.15-33.43c0.22-9.39-3.2-18.2-9.63-24.81l-2.47-2.54l2.47-2.54c6.22-6.39,9.64-14.9,9.64-23.96v-0.59
					l0.18-0.54c-0.31-18.63-15.56-33.7-34.27-33.7h-32.45c-4.33,0-7.86,3.53-7.86,7.86s3.53,7.86,7.86,7.86h31.93
					c9.97,0,18.41,7.55,19.2,17.18c0.42,5.12-1.22,10.07-4.61,13.93c-3.35,3.81-8.14,6.13-13.15,6.36l-10.35,0
					c-4.33,0-7.86,3.53-7.86,7.86s3.53,7.86,7.86,7.86h10.18c10.09,0.47,17.84,8.72,17.82,18.78c-0.02,10.13-8.85,18.69-19.27,18.69
					H307.59z"/>
			</g>
		</g>
	</g>
	<g>
		<path class="st2" d="M629.02,66.85c-13.03,0-23.62-10.6-23.62-23.62V23.62C605.4,10.6,615.99,0,629.02,0s23.62,10.6,23.62,23.62
			v19.61C652.64,56.25,642.05,66.85,629.02,66.85z M629.02,14.61c-4.97,0-9.01,4.04-9.01,9.01v19.61c0,4.97,4.04,9.01,9.01,9.01
			c4.97,0,9.01-4.04,9.01-9.01V23.62C638.03,18.65,633.99,14.61,629.02,14.61z"/>
	</g>
</g>
</svg>
