<?xml version="1.0" encoding="utf-8"?>
<!-- Generator: Adobe Illustrator 28.0.0, SVG Export Plug-In . SVG Version: 6.00 Build 0)  -->
<svg version="1.1" id="Camada_1" xmlns="http://www.w3.org/2000/svg" xmlns:xlink="http://www.w3.org/1999/xlink" x="0px" y="0px"
	 viewBox="0 0 340.56 395.91" style="enable-background:new 0 0 340.56 395.91;" xml:space="preserve">
<style type="text/css">
	.st0{fill:#FFFFFF;stroke:#EE761B;stroke-width:15;stroke-miterlimit:10;}
	.st1{fill:#1C3661;}
	.st2{fill:#EE761B;}
	.st3{fill:none;stroke:#000000;stroke-miterlimit:10;}
	.st4{fill:#E30613;}
	.st5{fill:none;stroke:#1C3661;stroke-width:16;stroke-miterlimit:10;}
	.st6{fill:#FFFFFF;stroke:#EE761B;stroke-width:13;stroke-miterlimit:10;}
	.st7{fill:#010202;}
	.st8{fill:#FFFFFF;}
	.st9{fill:#FFFFFF;stroke:#EE761B;stroke-width:9.5;stroke-miterlimit:10;}
	.st10{fill:#FFFFFF;stroke:#EE761B;stroke-width:8.5;stroke-miterlimit:10;}
</style>
<g>
	<g>
		<path class="st1" d="M0,395.91v-188.2C0,122.44,69.12,53.32,154.39,53.32h49.21c7.95,0,14.4,6.45,14.4,14.4v0
			c0,7.95-6.45,14.4-14.4,14.4h-45.04c-68.99,0-124.91,55.92-124.91,124.91v8.5h78.92c7.76,0,14.05,6.29,14.05,14.05v0
			c0,7.76-6.29,14.05-14.05,14.05H33.65v123.5h107.36c7.95,0,14.4,6.45,14.4,14.4v0c0,7.95-6.45,14.4-14.4,14.4H0z"/>
	</g>
	<g>
		<path class="st2" d="M293.76,132.45c-25.81,0-46.8-21-46.8-46.8V46.8C246.95,21,267.95,0,293.76,0c25.81,0,46.81,21,46.81,46.8
			v38.85C340.56,111.46,319.56,132.45,293.76,132.45z M293.76,28.95c-9.84,0-17.85,8.01-17.85,17.85v38.85
			c0,9.84,8.01,17.85,17.85,17.85c9.84,0,17.85-8.01,17.85-17.85V46.8C311.61,36.96,303.6,28.95,293.76,28.95z"/>
	</g>
</g>
</svg>
